<?xml version="1.0" encoding="UTF-8" standalone="no"?>
<svg
   xmlns:dc="http://purl.org/dc/elements/1.1/"
   xmlns:cc="http://creativecommons.org/ns#"
   xmlns:rdf="http://www.w3.org/1999/02/22-rdf-syntax-ns#"
   xmlns:svg="http://www.w3.org/2000/svg"
   xmlns="http://www.w3.org/2000/svg"
   xmlns:sodipodi="http://sodipodi.sourceforge.net/DTD/sodipodi-0.dtd"
   xmlns:inkscape="http://www.inkscape.org/namespaces/inkscape"
   width="512"
   height="512"
   viewBox="0 0 135.46666 135.46667"
   version="1.1"
   id="svg8"
   inkscape:version="1.0.2 (e86c870879, 2021-01-15, custom)"
   sodipodi:docname="icon.svg"
   inkscape:export-filename="icon.png"
   inkscape:export-xdpi="24.000002"
   inkscape:export-ydpi="24.000002">
  <defs
     id="defs2" />
  <sodipodi:namedview
     id="base"
     pagecolor="#ffffff"
     bordercolor="#666666"
     borderopacity="1.0"
     inkscape:pageopacity="0.0"
     inkscape:pageshadow="2"
     inkscape:zoom="0.7"
     inkscape:cx="300.26527"
     inkscape:cy="270.63483"
     inkscape:document-units="mm"
     inkscape:current-layer="layer1"
     inkscape:document-rotation="0"
     showgrid="false"
     inkscape:window-width="1680"
     inkscape:window-height="997"
     inkscape:window-x="-8"
     inkscape:window-y="-8"
     inkscape:window-maximized="1"
     units="px"
     inkscape:snap-global="false"
     inkscape:snap-bbox="true"
     inkscape:bbox-nodes="true"
     inkscape:bbox-paths="true"
     inkscape:snap-bbox-edge-midpoints="true"
     inkscape:snap-bbox-midpoints="true"
     inkscape:object-paths="true"
     inkscape:snap-intersection-paths="true"
     inkscape:snap-smooth-nodes="true"
     inkscape:snap-midpoints="true"
     inkscape:snap-object-midpoints="true"
     inkscape:snap-center="true"
     inkscape:snap-text-baseline="true"
     inkscape:snap-page="true" />
  <metadata
     id="metadata5">
    <rdf:RDF>
      <cc:Work
         rdf:about="">
        <dc:format>image/svg+xml</dc:format>
        <dc:type
           rdf:resource="http://purl.org/dc/dcmitype/StillImage" />
        <dc:title />
      </cc:Work>
    </rdf:RDF>
  </metadata>
  <g
     inkscape:label="Layer 1"
     inkscape:groupmode="layer"
     id="layer1">
    <g
       id="g957"
       transform="matrix(0.99393093,0,0,0.99396324,14.608423,0.40888245)"
       style="stroke-width:1.00609">
      <path
         style="fill:#808080;fill-opacity:1;stroke:#333333;stroke-width:2.66195;stroke-linecap:round;stroke-linejoin:round;stroke-miterlimit:4;stroke-dasharray:none;stroke-opacity:1"
         d="M 6.9950429,107.68769 32.810801,134.14376 105.57582,110.45928 81.784817,91.688065 Z"
         id="path845" />
      <path
         style="fill:#999999;fill-opacity:1;stroke:#333333;stroke-width:2.66195;stroke-linecap:round;stroke-linejoin:round;stroke-miterlimit:4;stroke-dasharray:none;stroke-opacity:1"
         d="m 37.999266,54.901521 -0.126556,54.549929 9.237998,6.17307 21.892784,-6.04711 0.126555,-58.455335 z"
         id="path847" />
      <path
         style="fill:#e6e6e6;stroke:#333333;stroke-width:2.66195;stroke-linecap:round;stroke-linejoin:round;stroke-miterlimit:4;stroke-dasharray:none;stroke-opacity:1"
         d="M 47.490348,46.334788 47.110709,115.62452"
         id="path849"
         sodipodi:nodetypes="cc" />
      <path
         style="fill:#b3b3b3;fill-opacity:1;stroke:#333333;stroke-width:2.66195;stroke-linecap:round;stroke-linejoin:round;stroke-miterlimit:4;stroke-dasharray:none;stroke-opacity:1"
         d="M 13.375002,70.733278 97.309923,60.93423 81.739894,3.5652523 1.3228943,1.3229161 Z"
         id="path851"
         sodipodi:nodetypes="ccccc" />
      <path
         style="fill:#666666;fill-opacity:1;stroke:#333333;stroke-width:2.66195;stroke-linecap:round;stroke-linejoin:round;stroke-miterlimit:4;stroke-dasharray:none;stroke-opacity:1"
         d="M 21.316399,61.139571 85.845542,53.843424 75.041451,11.738431 12.694692,11.163718 Z"
         id="path851-4"
         sodipodi:nodetypes="ccccc" />
      <g
         id="g935"
         transform="matrix(0.18235912,0,0.05732585,0.17764151,32.519464,16.876407)"
         style="stroke-width:5.58983">
        <path
           d="M 29.685897,4.1579101 C 28.72829,4.1876279 27.696984,4.5413778 26.527433,5.4642903 23.6628,4.3593109 20.884641,3.97543 18.399764,6.2249674 14.56493,5.7273502 13.317042,6.7543309 12.372225,7.9530273 11.530176,7.9356005 6.0701551,7.0872921 3.5665613,10.822103 c -6.2922276,-0.744385 -8.2806058,3.700958 -6.027539,7.846549 -1.2850577,1.98939 -2.6165976,3.954787 0.3886068,7.747331 -1.0630974,2.112304 -0.4041328,4.403733 2.10013014,7.176823 -0.66089132,2.969312 0.63819537,5.064352 2.96829426,6.697265 -0.4357926,4.063355 3.7262606,6.426049 4.9692056,7.267773 0.4772229,2.367672 1.4718533,4.601819 6.2259769,5.83737 0.784021,3.52851 3.641211,4.137835 6.407877,4.878255 C 11.454603,63.588827 3.6126861,70.58259 3.66578,87.741438 l -1.3394531,2.389518 c -10.485667,6.377064 -19.9192349,26.872744 -5.1676431,43.532224 0.9635783,5.21451 2.57957868,8.95984 4.0183593,13.10515 2.1520769,16.70329 16.1971639,24.52465 19.9016269,25.4496 5.428332,4.13494 11.209915,8.05834 19.033464,10.80658 7.3753,7.60663 15.36538,10.50565 23.399088,10.50065 0.117779,-7e-5 0.237736,0.001 0.355534,0 8.03371,0.005 16.023788,-2.89402 23.399088,-10.50065 7.823549,-2.74824 13.605136,-6.67164 19.033466,-10.80658 3.70446,-0.92495 17.74955,-8.74631 19.90162,-25.4496 1.43879,-4.14531 3.05478,-7.89064 4.01836,-13.10515 14.75159,-16.65948 5.31803,-37.15516 -5.16764,-43.532224 l -1.33945,-2.389518 c 0.0531,-17.158848 -7.78882,-24.152611 -16.93334,-29.467969 2.76667,-0.74042 5.62386,-1.349745 6.40788,-4.878255 4.75413,-1.235551 5.74876,-3.469698 6.22598,-5.83737 1.24295,-0.841724 5.405,-3.204418 4.9692,-7.267773 2.33011,-1.632913 3.62919,-3.727953 2.9683,-6.697265 2.50426,-2.77309 3.16322,-5.064519 2.10013,-7.176823 3.0052,-3.792544 1.67366,-5.757941 0.38861,-7.747331 2.25306,-4.145591 0.26468,-8.590934 -6.02754,-7.846549 -2.5036,-3.7348109 -7.96362,-2.8865025 -8.80567,-2.8690757 -0.94481,-1.1986964 -2.1927,-2.2256771 -6.02754,-1.7280599 C 106.49334,3.97543 103.71518,4.359311 100.85054,5.4642903 97.448214,2.779454 95.195801,4.9316058 92.623657,5.7454101 88.503075,4.3992689 87.561378,6.243067 85.537784,6.9939127 81.046416,6.0445676 79.681073,8.1113889 77.52587,10.292936 l -2.505273,-0.04961 C 68.244475,14.236713 64.878118,22.36799 63.684855,26.548274 62.491039,22.367334 59.13231,14.23601 52.357381,10.243327 l -2.505273,0.04961 C 47.696904,8.1113889 46.331562,6.0445675 41.840194,6.9939127 39.816599,6.2430671 38.874902,4.3992691 34.754321,5.7454101 33.066351,5.211351 31.514057,4.1011762 29.685897,4.1579101 Z"
           style="fill:#000000;stroke-width:1.47897"
           id="path2" />
        <path
           d="M 16.196603,21.726067 C 34.174423,30.99478 44.625259,38.492439 50.350916,44.87829 47.418711,56.630444 32.122082,57.166768 26.529,56.837081 c 1.145227,-0.533067 2.10076,-1.171517 2.439593,-2.152581 -1.40348,-0.997429 -6.379869,-0.10509 -9.854044,-2.056913 1.334577,-0.276487 1.958838,-0.545841 2.583098,-1.530726 -3.282344,-1.046877 -6.817947,-1.949032 -8.897341,-3.683307 1.122165,0.01386 2.169889,0.251037 3.635472,-0.765363 C 13.495809,45.063816 10.358535,43.808283 7.9211187,41.386322 9.4412063,41.349114 11.080099,41.371294 11.556592,40.8123 8.8656629,39.145246 6.5953258,37.29126 4.7161624,35.263419 6.8434068,35.520203 7.7417479,35.29908 8.255965,34.928573 6.2219026,32.845194 3.6475693,31.085979 2.4200741,28.518661 c 1.5794582,0.544376 3.0245179,0.752755 4.0659896,-0.04784 -0.6911882,-1.55931 -3.6526821,-2.479045 -5.3575391,-6.122902 1.6627366,0.161231 3.4262499,0.362772 3.7789783,0 C 4.134309,19.202408 2.81003,17.434605 1.511206,15.603165 c 3.5586572,-0.05285 8.95026,0.01385 8.706001,-0.287011 L 8.0167891,13.067901 c 3.4759949,-0.935895 7.0327969,0.150326 9.6148689,0.956703 1.159367,-0.914845 -0.02053,-2.071682 -1.435055,-3.252791 2.954062,0.3944 5.623406,1.073517 8.036308,2.009077 1.289151,-1.163989 -0.837112,-2.327979 -1.865572,-3.4919677 4.563894,0.8658667 6.497416,2.0824507 8.418992,3.3006267 1.394182,-1.336357 0.07981,-2.472081 -0.861034,-3.6354731 3.441081,1.2745111 5.213556,2.9198231 7.079605,4.5443411 0.632669,-0.853824 1.607327,-1.479658 0.430516,-3.5398023 2.443205,1.4083043 4.283409,3.0678593 5.644552,4.9270223 1.51166,-0.962538 0.900608,-2.278862 0.908868,-3.491967 2.539113,2.065474 4.150484,4.263482 6.122903,6.409913 0.397322,-0.289306 0.745228,-1.270453 1.052372,-2.822276 6.057738,5.876876 14.617147,20.679368 2.200418,26.54852 C 42.80269,32.812557 30.182763,26.478334 16.196603,21.726067 Z"
           style="fill:#75a928;stroke-width:1.47897"
           id="path4" />
        <path
           d="M 111.58763,21.726067 C 93.609812,30.99478 83.158976,38.492439 77.433319,44.87829 c 2.932205,11.752154 18.228834,12.288478 23.821921,11.958791 -1.14523,-0.533067 -2.100765,-1.171517 -2.439598,-2.152581 1.403478,-0.997429 6.379868,-0.10509 9.854048,-2.056913 -1.33458,-0.276487 -1.95884,-0.545841 -2.5831,-1.530726 3.28234,-1.046877 6.81794,-1.949032 8.89734,-3.683307 -1.12217,0.01386 -2.16989,0.251037 -3.63547,-0.765363 2.93996,-1.584375 6.07724,-2.839908 8.51466,-5.261869 -1.52009,-0.03721 -3.15898,-0.01503 -3.63548,-0.574022 2.69093,-1.667054 4.96127,-3.52104 6.84043,-5.548881 -2.12724,0.256784 -3.02558,0.03566 -3.5398,-0.334846 2.03406,-2.083379 4.6084,-3.842594 5.83589,-6.409912 -1.57946,0.544376 -3.02452,0.752755 -4.06599,-0.04784 0.69119,-1.55931 3.65268,-2.479045 5.35754,-6.122902 -1.66274,0.161231 -3.42625,0.362772 -3.77898,0 0.7732,-3.145516 2.09747,-4.913319 3.3963,-6.744759 -3.55866,-0.05285 -8.95026,0.01385 -8.706,-0.287011 l 2.20042,-2.248253 c -3.476,-0.935895 -7.0328,0.150326 -9.61487,0.956703 -1.15937,-0.914845 0.0205,-2.071682 1.43505,-3.252791 -2.95406,0.3944 -5.6234,1.073517 -8.03631,2.009077 -1.28915,-1.163989 0.83712,-2.327979 1.86558,-3.4919677 -4.5639,0.8658667 -6.49742,2.0824507 -8.418996,3.3006267 -1.394182,-1.336357 -0.07981,-2.472081 0.861034,-3.6354731 -3.441081,1.2745111 -5.213557,2.9198231 -7.079605,4.5443411 -0.632669,-0.853824 -1.607327,-1.479658 -0.430516,-3.5398023 -2.443205,1.4083043 -4.283409,3.0678593 -5.644552,4.9270223 -1.51166,-0.962538 -0.900608,-2.278862 -0.908868,-3.491967 -2.539113,2.065474 -4.150484,4.263482 -6.122903,6.409913 -0.397322,-0.289306 -0.745228,-1.270453 -1.052372,-2.822276 -6.057738,5.876876 -14.617147,20.679368 -2.200418,26.54852 10.561841,-8.71727 23.181768,-15.051493 37.167926,-19.80376 z"
           style="fill:#75a928;stroke-width:1.47897"
           id="path6" />
        <path
           d="m 85.664149,141.39855 a 21.534467,19.857446 0 1 1 -43.068934,0 21.534467,19.857446 0 1 1 43.068934,0 z"
           style="fill:#bc1142;stroke-width:1.67061"
           id="path8" />
        <path
           d="M 51.667217,84.672253 A 19.314276,22.788475 34.034225 1 1 26.540311,122.69612 19.314276,22.788475 34.034225 1 1 51.667217,84.672253 Z"
           style="fill:#bc1142;stroke-width:2.81121"
           id="path10" />
        <path
           d="M 75.752813,83.61392 A 22.788477,19.314277 55.965775 1 0 100.87972,121.63779 22.788477,19.314277 55.965775 1 0 75.752813,83.61392 Z"
           style="fill:#bc1142;stroke-width:2.81121"
           id="path12" />
        <path
           d="M 7.0733495,94.230423 C 16.707944,91.648905 10.3255,134.08633 2.4872256,130.60422 -6.13469,123.66878 -8.9118365,103.35864 7.0733495,94.230423 Z"
           style="fill:#bc1142;stroke-width:1.47897"
           id="path14" />
        <path
           d="m 118.40156,93.701257 c -9.6346,-2.581519 -3.25216,39.855913 4.58612,36.373793 8.62191,-6.93543 11.39906,-27.24558 -4.58612,-36.373793 z"
           style="fill:#bc1142;stroke-width:1.47897"
           id="path16" />
        <path
           d="M 85.670825,62.100905 C 102.29588,59.293642 116.12858,69.171178 115.57175,87.19874 115.02488,94.109953 79.546424,63.129841 85.670825,62.100905 Z"
           style="fill:#bc1142;stroke-width:1.47897"
           id="path18" />
        <path
           d="M 39.736029,61.571739 C 23.110972,58.764475 9.2782698,68.642011 9.8351013,86.669574 10.381977,93.580787 45.860429,62.600674 39.736029,61.571739 Z"
           style="fill:#bc1142;stroke-width:1.47897"
           id="path20" />
        <path
           d="m 63.617206,57.365467 c -9.92256,-0.258096 -19.445679,7.36446 -19.468459,11.785714 -0.02768,5.372168 7.845213,10.872432 19.536108,11.01205 11.938807,0.08552 19.556838,-4.402796 19.595332,-9.946769 0.04361,-6.281198 -10.858179,-12.948031 -19.662981,-12.850995 z"
           style="fill:#bc1142;stroke-width:1.47897"
           id="path22" />
        <path
           d="m 64.223115,167.52767 c 8.651198,-0.37759 20.259365,2.78658 20.282112,6.98393 0.143589,4.07596 -10.527689,13.28488 -20.856136,13.10684 -10.696387,0.46141 -21.184944,-8.76184 -21.047474,-11.9588 -0.160089,-4.68734 13.024379,-8.34706 21.621498,-8.13197 z"
           style="fill:#bc1142;stroke-width:1.47897"
           id="path24" />
        <path
           d="m 32.26922,142.65338 c 6.159262,7.42043 8.966903,20.45731 3.826814,24.30026 -4.862822,2.93366 -16.671999,1.72552 -25.065629,-10.33239 -5.6607742,-10.11811 -4.9311941,-20.41436 -0.956704,-23.43924 5.943713,-3.62063 15.127135,1.26974 22.195519,9.47137 z"
           style="fill:#bc1142;stroke-width:1.47897"
           id="path26" />
        <path
           d="m 94.94429,140.30072 c -6.664012,7.80565 -10.374913,22.04231 -5.513347,26.62841 4.648274,3.56225 17.126267,3.0643 26.343417,-9.72496 6.69289,-8.58962 4.45032,-22.93467 0.62726,-26.74279 -5.67903,-4.39264 -13.8316,1.22897 -21.45733,9.83934 z"
           style="fill:#bc1142;stroke-width:1.47897"
           id="path28" />
      </g>
    </g>
  </g>
</svg>
